<mxfile host="app.diagrams.net" modified="2022-03-13T15:58:26.556Z" agent="5.0 (X11)" etag="8Xi8s2odtyNI5vPdh548" version="17.1.2" type="github">
  <diagram id="kgpKYQtTHZ0yAKxKKP6v" name="Page-1">
    <mxGraphModel dx="1422" dy="756" grid="1" gridSize="10" guides="1" tooltips="1" connect="1" arrows="1" fold="1" page="1" pageScale="1" pageWidth="850" pageHeight="1100" math="0" shadow="0">
      <root>
        <mxCell id="0" />
        <mxCell id="1" parent="0" />
        <mxCell id="3nuBFxr9cyL0pnOWT2aG-1" value="User" style="shape=umlLifeline;perimeter=lifelinePerimeter;container=1;collapsible=0;recursiveResize=0;rounded=0;shadow=0;strokeWidth=1;" parent="1" vertex="1">
          <mxGeometry x="10" y="80" width="100" height="450" as="geometry" />
        </mxCell>
        <mxCell id="3nuBFxr9cyL0pnOWT2aG-2" value="" style="points=[];perimeter=orthogonalPerimeter;rounded=0;shadow=0;strokeWidth=1;" parent="3nuBFxr9cyL0pnOWT2aG-1" vertex="1">
          <mxGeometry x="45" y="70" width="10" height="380" as="geometry" />
        </mxCell>
        <mxCell id="3nuBFxr9cyL0pnOWT2aG-5" value=": BuyService Page" style="shape=umlLifeline;perimeter=lifelinePerimeter;container=1;collapsible=0;recursiveResize=0;rounded=0;shadow=0;strokeWidth=1;" parent="1" vertex="1">
          <mxGeometry x="190" y="80" width="110" height="190" as="geometry" />
        </mxCell>
        <mxCell id="3nuBFxr9cyL0pnOWT2aG-6" value="" style="points=[];perimeter=orthogonalPerimeter;rounded=0;shadow=0;strokeWidth=1;" parent="3nuBFxr9cyL0pnOWT2aG-5" vertex="1">
          <mxGeometry x="50" y="80" width="10" height="110" as="geometry" />
        </mxCell>
        <mxCell id="3nuBFxr9cyL0pnOWT2aG-8" value="" style="verticalAlign=bottom;endArrow=block;entryX=0;entryY=0;shadow=0;strokeWidth=1;entryDx=0;entryDy=0;entryPerimeter=0;" parent="1" source="3nuBFxr9cyL0pnOWT2aG-2" target="3nuBFxr9cyL0pnOWT2aG-6" edge="1">
          <mxGeometry relative="1" as="geometry">
            <mxPoint x="165" y="160" as="sourcePoint" />
          </mxGeometry>
        </mxCell>
        <mxCell id="2_4Tgf92gbjspps2wVmF-2" value="press ACCESS button" style="text;html=1;align=center;verticalAlign=middle;resizable=0;points=[];autosize=1;strokeColor=none;fillColor=none;" vertex="1" parent="1">
          <mxGeometry x="85" y="140" width="130" height="20" as="geometry" />
        </mxCell>
        <mxCell id="2_4Tgf92gbjspps2wVmF-3" value=": OrderDAO" style="shape=umlLifeline;perimeter=lifelinePerimeter;container=1;collapsible=0;recursiveResize=0;rounded=0;shadow=0;strokeWidth=1;" vertex="1" parent="1">
          <mxGeometry x="740" y="80" width="110" height="390" as="geometry" />
        </mxCell>
        <mxCell id="2_4Tgf92gbjspps2wVmF-4" value="" style="points=[];perimeter=orthogonalPerimeter;rounded=0;shadow=0;strokeWidth=1;" vertex="1" parent="2_4Tgf92gbjspps2wVmF-3">
          <mxGeometry x="45" y="90" width="10" height="300" as="geometry" />
        </mxCell>
        <mxCell id="2_4Tgf92gbjspps2wVmF-5" value="" style="endArrow=classic;html=1;rounded=0;entryX=0;entryY=0;entryDx=0;entryDy=0;entryPerimeter=0;" edge="1" parent="1" source="3nuBFxr9cyL0pnOWT2aG-5" target="2_4Tgf92gbjspps2wVmF-4">
          <mxGeometry width="50" height="50" relative="1" as="geometry">
            <mxPoint x="360" y="170" as="sourcePoint" />
            <mxPoint x="700" y="170" as="targetPoint" />
          </mxGeometry>
        </mxCell>
        <mxCell id="2_4Tgf92gbjspps2wVmF-6" value="createOrder()" style="text;html=1;align=center;verticalAlign=middle;resizable=0;points=[];autosize=1;strokeColor=none;fillColor=none;" vertex="1" parent="1">
          <mxGeometry x="280" y="150" width="90" height="20" as="geometry" />
        </mxCell>
        <mxCell id="2_4Tgf92gbjspps2wVmF-8" value="" style="verticalAlign=bottom;endArrow=open;dashed=1;endSize=8;shadow=0;strokeWidth=1;exitX=0;exitY=0.1;exitDx=0;exitDy=0;exitPerimeter=0;" edge="1" parent="1" source="2_4Tgf92gbjspps2wVmF-4" target="3nuBFxr9cyL0pnOWT2aG-5">
          <mxGeometry relative="1" as="geometry">
            <mxPoint x="360" y="186" as="targetPoint" />
            <mxPoint x="700" y="190" as="sourcePoint" />
          </mxGeometry>
        </mxCell>
        <mxCell id="2_4Tgf92gbjspps2wVmF-9" value=": Landing Page" style="shape=umlLifeline;perimeter=lifelinePerimeter;container=1;collapsible=0;recursiveResize=0;rounded=0;shadow=0;strokeWidth=1;" vertex="1" parent="1">
          <mxGeometry x="365" y="80" width="100" height="420" as="geometry" />
        </mxCell>
        <mxCell id="2_4Tgf92gbjspps2wVmF-10" value="" style="points=[];perimeter=orthogonalPerimeter;rounded=0;shadow=0;strokeWidth=1;" vertex="1" parent="2_4Tgf92gbjspps2wVmF-9">
          <mxGeometry x="45" y="190" width="10" height="140" as="geometry" />
        </mxCell>
        <mxCell id="2_4Tgf92gbjspps2wVmF-11" value="" style="endArrow=classic;html=1;rounded=0;entryX=0;entryY=0;entryDx=0;entryDy=0;entryPerimeter=0;" edge="1" parent="1" source="3nuBFxr9cyL0pnOWT2aG-6" target="2_4Tgf92gbjspps2wVmF-10">
          <mxGeometry width="50" height="50" relative="1" as="geometry">
            <mxPoint x="260" y="270" as="sourcePoint" />
            <mxPoint x="320" y="270" as="targetPoint" />
          </mxGeometry>
        </mxCell>
        <mxCell id="2_4Tgf92gbjspps2wVmF-12" value="display Landing page" style="text;html=1;align=center;verticalAlign=middle;resizable=0;points=[];autosize=1;strokeColor=none;fillColor=none;" vertex="1" parent="1">
          <mxGeometry x="265" y="250" width="130" height="20" as="geometry" />
        </mxCell>
        <mxCell id="2_4Tgf92gbjspps2wVmF-13" value="" style="verticalAlign=bottom;endArrow=open;dashed=1;endSize=8;shadow=0;strokeWidth=1;exitX=0;exitY=0.1;exitDx=0;exitDy=0;exitPerimeter=0;" edge="1" parent="1" source="2_4Tgf92gbjspps2wVmF-10" target="3nuBFxr9cyL0pnOWT2aG-2">
          <mxGeometry relative="1" as="geometry">
            <mxPoint x="70" y="290" as="targetPoint" />
            <mxPoint x="400" y="290" as="sourcePoint" />
          </mxGeometry>
        </mxCell>
        <mxCell id="2_4Tgf92gbjspps2wVmF-14" value="" style="endArrow=classic;html=1;rounded=0;exitX=1;exitY=0.447;exitDx=0;exitDy=0;exitPerimeter=0;" edge="1" parent="1" source="3nuBFxr9cyL0pnOWT2aG-2" target="2_4Tgf92gbjspps2wVmF-9">
          <mxGeometry width="50" height="50" relative="1" as="geometry">
            <mxPoint x="80" y="320" as="sourcePoint" />
            <mxPoint x="320" y="270" as="targetPoint" />
          </mxGeometry>
        </mxCell>
        <mxCell id="2_4Tgf92gbjspps2wVmF-15" value="press LOGIN button" style="text;html=1;align=center;verticalAlign=middle;resizable=0;points=[];autosize=1;strokeColor=none;fillColor=none;" vertex="1" parent="1">
          <mxGeometry x="170" y="300" width="120" height="20" as="geometry" />
        </mxCell>
        <mxCell id="2_4Tgf92gbjspps2wVmF-17" value=": UsersDAO" style="shape=umlLifeline;perimeter=lifelinePerimeter;container=1;collapsible=0;recursiveResize=0;rounded=0;shadow=0;strokeWidth=1;" vertex="1" parent="1">
          <mxGeometry x="620" y="80" width="100" height="300" as="geometry" />
        </mxCell>
        <mxCell id="2_4Tgf92gbjspps2wVmF-18" value="" style="points=[];perimeter=orthogonalPerimeter;rounded=0;shadow=0;strokeWidth=1;" vertex="1" parent="2_4Tgf92gbjspps2wVmF-17">
          <mxGeometry x="45" y="250" width="10" height="40" as="geometry" />
        </mxCell>
        <mxCell id="2_4Tgf92gbjspps2wVmF-19" value="" style="endArrow=classic;html=1;rounded=0;entryX=0;entryY=0.1;entryDx=0;entryDy=0;entryPerimeter=0;" edge="1" parent="1" target="2_4Tgf92gbjspps2wVmF-18">
          <mxGeometry width="50" height="50" relative="1" as="geometry">
            <mxPoint x="420" y="334" as="sourcePoint" />
            <mxPoint x="500" y="370" as="targetPoint" />
          </mxGeometry>
        </mxCell>
        <mxCell id="2_4Tgf92gbjspps2wVmF-20" value="checkLogin()" style="text;html=1;align=center;verticalAlign=middle;resizable=0;points=[];autosize=1;strokeColor=none;fillColor=none;" vertex="1" parent="1">
          <mxGeometry x="450" y="320" width="80" height="20" as="geometry" />
        </mxCell>
        <mxCell id="2_4Tgf92gbjspps2wVmF-21" value="" style="verticalAlign=bottom;endArrow=open;dashed=1;endSize=8;shadow=0;strokeWidth=1;exitX=0;exitY=1;exitDx=0;exitDy=0;exitPerimeter=0;" edge="1" parent="1" source="2_4Tgf92gbjspps2wVmF-18">
          <mxGeometry relative="1" as="geometry">
            <mxPoint x="420" y="370" as="targetPoint" />
            <mxPoint x="685" y="196" as="sourcePoint" />
          </mxGeometry>
        </mxCell>
        <mxCell id="2_4Tgf92gbjspps2wVmF-25" value=": Home Page" style="shape=umlLifeline;perimeter=lifelinePerimeter;container=1;collapsible=0;recursiveResize=0;rounded=0;shadow=0;strokeWidth=1;" vertex="1" parent="1">
          <mxGeometry x="490" y="80" width="110" height="460" as="geometry" />
        </mxCell>
        <mxCell id="2_4Tgf92gbjspps2wVmF-26" value="" style="points=[];perimeter=orthogonalPerimeter;rounded=0;shadow=0;strokeWidth=1;" vertex="1" parent="2_4Tgf92gbjspps2wVmF-25">
          <mxGeometry x="50" y="320" width="10" height="100" as="geometry" />
        </mxCell>
        <mxCell id="2_4Tgf92gbjspps2wVmF-28" value="" style="endArrow=classic;html=1;rounded=0;exitX=1;exitY=1;exitDx=0;exitDy=0;exitPerimeter=0;" edge="1" parent="1" source="2_4Tgf92gbjspps2wVmF-10">
          <mxGeometry width="50" height="50" relative="1" as="geometry">
            <mxPoint x="350" y="470" as="sourcePoint" />
            <mxPoint x="540" y="410" as="targetPoint" />
          </mxGeometry>
        </mxCell>
        <mxCell id="2_4Tgf92gbjspps2wVmF-29" value="display HOME page" style="text;html=1;align=center;verticalAlign=middle;resizable=0;points=[];autosize=1;strokeColor=none;fillColor=none;" vertex="1" parent="1">
          <mxGeometry x="420" y="390" width="120" height="20" as="geometry" />
        </mxCell>
        <mxCell id="2_4Tgf92gbjspps2wVmF-30" value="" style="verticalAlign=bottom;endArrow=open;dashed=1;endSize=8;shadow=0;strokeWidth=1;exitX=0;exitY=1;exitDx=0;exitDy=0;exitPerimeter=0;" edge="1" parent="1" source="2_4Tgf92gbjspps2wVmF-26" target="3nuBFxr9cyL0pnOWT2aG-1">
          <mxGeometry relative="1" as="geometry">
            <mxPoint x="254.5" y="196" as="targetPoint" />
            <mxPoint x="795" y="196" as="sourcePoint" />
          </mxGeometry>
        </mxCell>
        <mxCell id="2_4Tgf92gbjspps2wVmF-33" value="" style="endArrow=classic;html=1;rounded=0;exitX=1;exitY=0.371;exitDx=0;exitDy=0;exitPerimeter=0;" edge="1" parent="1" source="2_4Tgf92gbjspps2wVmF-26" target="2_4Tgf92gbjspps2wVmF-3">
          <mxGeometry width="50" height="50" relative="1" as="geometry">
            <mxPoint x="660" y="480" as="sourcePoint" />
            <mxPoint x="730" y="420" as="targetPoint" />
          </mxGeometry>
        </mxCell>
        <mxCell id="2_4Tgf92gbjspps2wVmF-34" value="loadOrderById()" style="text;html=1;align=center;verticalAlign=middle;resizable=0;points=[];autosize=1;strokeColor=none;fillColor=none;" vertex="1" parent="1">
          <mxGeometry x="570" y="420" width="100" height="20" as="geometry" />
        </mxCell>
        <mxCell id="2_4Tgf92gbjspps2wVmF-35" value="" style="verticalAlign=bottom;endArrow=open;dashed=1;endSize=8;shadow=0;strokeWidth=1;exitX=0;exitY=0.997;exitDx=0;exitDy=0;exitPerimeter=0;" edge="1" parent="1" source="2_4Tgf92gbjspps2wVmF-4">
          <mxGeometry relative="1" as="geometry">
            <mxPoint x="550" y="469" as="targetPoint" />
            <mxPoint x="780" y="470" as="sourcePoint" />
          </mxGeometry>
        </mxCell>
      </root>
    </mxGraphModel>
  </diagram>
</mxfile>
